# Blender v2.80 (sub 75) OBJ File: ''
# www.blender.org
mtllib tree.mtl
o Cylinder.020
v -5.140786 0.506818 -4.663555
v -5.099345 0.855348 -4.652382
v -5.352913 0.855348 -4.447701
v -5.355092 0.506818 -4.490567
v -5.625932 0.855348 -4.625609
v -5.585838 0.506818 -4.640928
v -5.541100 0.855348 -4.940242
v -5.514141 0.506818 -4.906844
v -5.215651 0.855348 -4.956789
v -5.239083 0.506818 -4.920829
v -5.099345 0.197637 -4.652382
v -5.352913 0.197637 -4.447701
v -5.625932 0.197637 -4.625609
v -5.541100 0.197637 -4.940242
v -5.215651 0.197637 -4.956789
v -5.316041 0.626118 -3.723360
v -6.303397 0.693357 -4.366750
v -5.620912 3.179772 -4.621293
v -5.236094 3.073700 -4.336958
v -5.085975 3.657624 -4.591740
v -5.232389 3.692412 -4.689804
v -4.819642 0.626118 -5.564440
v -4.399030 0.693357 -4.463573
v -5.996605 0.693357 -5.504601
v -5.186895 3.681603 -4.863232
v -4.930107 4.093556 -4.689919
v -4.914311 4.089803 -4.750134
v -4.873665 3.060668 -4.624021
v -5.048801 3.029198 -5.050946
v -5.012365 3.640133 -4.872353
v -4.949993 3.625313 -4.704562
v -5.476437 3.203891 -5.027740
v -4.776701 0.656651 -5.628257
v -6.043091 0.727437 -5.563871
v -5.738727 1.336989 -5.225808
v -4.982440 1.330441 -5.264260
v -4.829033 1.267175 -5.501877
v -5.917628 1.347765 -5.446495
v -5.664477 1.961012 -5.121737
v -5.066173 1.926588 -5.152206
v -4.944356 1.838480 -5.346439
v -5.811553 1.937708 -5.302134
v -5.540863 2.573289 -5.017669
v -5.100926 2.527889 -5.040154
v -5.079874 2.772437 -5.071084
v -5.555058 2.879105 -5.046393
v -5.386230 3.190936 -4.913599
v -5.108706 3.124995 -4.928102
v -5.310816 0.656769 -3.647287
v -4.324130 0.727058 -4.443743
v -4.712165 1.328101 -4.556844
v -5.301413 1.333203 -4.081184
v -5.288483 1.263968 -3.797937
v -4.439183 1.332742 -4.483012
v -4.852356 1.914286 -4.591660
v -5.318515 1.941107 -4.214755
v -5.311286 1.859833 -3.983221
v -4.629337 1.891815 -4.531309
v -4.943706 2.511664 -4.626478
v -5.286475 2.547037 -4.348323
v -5.282535 2.802059 -4.311456
v -4.902828 2.783775 -4.616868
v -5.009526 3.101429 -4.661294
v -5.225755 3.152807 -4.481894
v -6.373193 0.727510 -4.339564
v -5.935863 1.338696 -4.494627
v -6.202138 1.281826 -4.393402
v -5.820434 1.969985 -4.542358
v -6.037015 1.973733 -4.459617
v -5.655538 2.585123 -4.590095
v -5.680309 2.897411 -4.576919
v -5.458570 3.208125 -4.637827
v -5.468301 3.177165 -5.009593
v -5.066394 3.012001 -5.031415
v -4.901496 3.042488 -4.629962
v -5.242512 3.053848 -4.360032
v -5.604527 3.153818 -4.627849
v -5.287612 2.441179 -4.170910
v -5.823541 2.566730 -4.526690
v -5.014565 2.413001 -5.188988
v -4.776031 2.458630 -4.580233
v -5.654788 2.549315 -5.155898
v -5.314011 1.842454 -4.014912
v -6.008695 1.952031 -4.470942
v -4.962749 1.822243 -5.319856
v -4.661122 1.874498 -4.539567
v -5.792878 1.917367 -5.277442
v -5.289006 1.222135 -3.818626
v -6.182302 1.238519 -4.400795
v -4.839789 1.226191 -5.484520
v -4.458607 1.293025 -4.488405
v -5.904113 1.305541 -5.430375
v -4.879272 4.081477 -4.655869
v -4.832058 4.070259 -4.695043
v -4.853714 4.075404 -4.753301
v -5.838724 2.601265 -4.520461
v -5.286070 2.471638 -4.153473
v -4.758524 2.487351 -4.575686
v -5.004502 2.441945 -5.203615
v -5.664705 2.582914 -5.169483
v -5.648214 2.574383 -5.148518
v -5.019083 2.440126 -5.181042
v -4.784683 2.483712 -4.582702
v -5.287400 2.468299 -4.180384
v -5.814043 2.591795 -4.530077
v -5.460955 3.189285 -5.005420
v -5.065470 3.027502 -5.026885
v -4.903433 3.056815 -4.632008
v -5.238703 3.068663 -4.366496
v -5.594670 3.166824 -4.629587
v -5.313435 1.858412 -4.023388
v -5.999836 1.966229 -4.473970
v -4.966384 1.838253 -5.312744
v -4.668422 1.888892 -4.541780
v -5.786592 1.932127 -5.270835
v -5.290305 1.251421 -3.836653
v -6.165794 1.268281 -4.407238
v -4.850045 1.254710 -5.469398
v -4.476476 1.318176 -4.493104
v -5.893165 1.332063 -5.416330
v -5.315755 0.646658 -3.736535
v -6.290117 0.711916 -4.371459
v -4.825889 0.646577 -5.553387
v -4.410812 0.711608 -4.467007
v -5.987363 0.711867 -5.494335
v -4.762677 4.264785 -4.657889
vt 0.375000 0.000000
vt 0.375000 0.000000
vt 0.375000 0.000000
vt 0.375000 0.000000
vt 0.375000 0.000000
vt 0.375000 0.000000
vt 0.375000 0.000000
vt 0.375000 0.000000
vt 0.375000 0.000000
vt 0.375000 0.000000
vt 0.375000 0.000000
vt 0.375000 0.000000
vt 0.375000 0.000000
vt 0.375000 0.000000
vt 0.375000 0.000000
vt 0.375000 0.000000
vt 0.375000 0.000000
vt 0.375000 0.000000
vt 0.375000 0.000000
vt 0.375000 0.000000
vt 0.375000 0.000000
vt 0.375000 0.000000
vt 0.375000 0.000000
vt 0.375000 0.000000
vt 0.375000 0.000000
vt 0.375000 0.000000
vt 0.375000 0.000000
vt 0.375000 0.000000
vt 0.375000 0.000000
vt 0.375000 0.000000
vt 0.375000 0.000000
vt 0.375000 0.000000
vt 0.375000 0.000000
vt 0.375000 0.000000
vt 0.375000 0.000000
vt 0.375000 0.000000
vt 0.375000 0.000000
vt 0.375000 0.000000
vt 0.375000 0.000000
vt 0.375000 0.000000
vt 0.375000 0.000000
vt 0.375000 0.000000
vt 0.375000 0.000000
vt 0.375000 0.000000
vt 0.375000 0.000000
vt 0.375000 0.000000
vt 0.375000 0.000000
vt 0.375000 0.000000
vt 0.375000 0.000000
vt 0.375000 0.000000
vt 0.375000 0.000000
vt 0.375000 0.000000
vt 0.375000 0.000000
vt 0.375000 0.000000
vt 0.375000 0.000000
vt 0.375000 0.000000
vt 0.375000 0.000000
vt 0.375000 0.000000
vt 0.375000 0.000000
vt 0.375000 0.000000
vt 0.375000 0.000000
vt 0.375000 0.000000
vt 0.375000 0.000000
vt 0.375000 0.000000
vt 0.375000 0.000000
vt 0.375000 0.000000
vt 0.375000 0.000000
vt 0.375000 0.000000
vt 0.375000 0.000000
vt 0.375000 0.000000
vt 0.375000 0.000000
vt 0.375000 0.000000
vt 0.375000 0.000000
vt 0.375000 0.000000
vt 0.375000 0.000000
vt 0.375000 0.000000
vt 0.375000 0.000000
vt 0.375000 0.000000
vt 0.375000 0.000000
vt 0.375000 0.000000
vt 0.375000 0.000000
vt 0.375000 0.000000
vt 0.375000 0.000000
vt 0.375000 0.000000
vt 0.375000 0.000000
vt 0.375000 0.000000
vt 0.375000 0.000000
vt 0.375000 0.000000
vt 0.375000 0.000000
vt 0.375000 0.000000
vt 0.375000 0.000000
vt 0.375000 0.000000
vt 0.375000 0.000000
vt 0.375000 0.000000
vt 0.375000 0.000000
vt 0.375000 0.000000
vt 0.375000 0.000000
vt 0.375000 0.000000
vt 0.375000 0.000000
vt 0.375000 0.000000
vt 0.375000 0.000000
vt 0.375000 0.000000
vt 0.375000 0.000000
vt 0.375000 0.000000
vt 0.375000 0.000000
vt 0.375000 0.000000
vt 0.375000 0.000000
vt 0.375000 0.000000
vt 0.375000 0.000000
vt 0.375000 0.000000
vt 0.375000 0.000000
vt 0.375000 0.000000
vt 0.375000 0.000000
vt 0.375000 0.000000
vt 0.375000 0.000000
vt 0.375000 0.000000
vt 0.375000 0.000000
vt 0.375000 0.000000
vt 0.375000 0.000000
vt 0.375000 0.000000
vt 0.375000 0.000000
vt 0.375000 0.000000
vt 0.375000 0.000000
vt 0.375000 0.000000
vt 0.375000 0.000000
vt 0.375000 0.000000
vn 0.6250 -0.0991 0.7743
vn -0.5433 -0.0991 0.8337
vn -0.9608 -0.0991 -0.2590
vn -0.0505 -0.0991 -0.9938
vn 0.9295 -0.0991 -0.3551
vn -0.0000 -1.0000 -0.0000
vn 0.9283 0.1116 -0.3547
vn -0.0505 0.1116 -0.9925
vn -0.9595 0.1116 -0.2587
vn -0.5425 0.1116 0.8326
vn 0.6242 0.1116 0.7733
vn 0.1370 -0.9478 -0.2879
vn -0.4418 0.4464 0.7782
vn -0.2800 -0.9478 0.1523
vn -0.1655 -0.9478 -0.2725
vn 0.2570 -0.9639 0.0693
vn -0.0263 -0.9478 0.3177
vn -0.7754 0.5842 -0.2398
vn 0.9263 0.0624 -0.3717
vn -0.7886 0.5637 -0.2454
vn 0.6254 0.1814 0.7589
vn 0.0514 0.2862 -0.9568
vn -0.0261 0.4813 -0.8762
vn -0.0130 0.4683 -0.8835
vn -0.0016 0.4073 -0.9133
vn 0.0381 0.3762 -0.9257
vn 0.5457 0.4613 0.6996
vn 0.5421 0.4791 0.6904
vn 0.5809 0.3818 0.7189
vn 0.6252 0.2808 0.7282
vn -0.8184 0.5304 -0.2211
vn -0.8653 0.4515 -0.2177
vn -0.8465 0.4729 -0.2445
vn -0.8096 0.5356 -0.2402
vn 0.8281 0.4512 -0.3326
vn 0.8099 0.4877 -0.3260
vn 0.8648 0.3664 -0.3434
vn 0.9091 0.2345 -0.3443
vn -0.4582 0.4963 0.7374
vn -0.4807 0.4385 0.7594
vn -0.4499 0.4378 0.7784
vn -0.4185 0.4518 0.7879
vn -0.2412 -0.7964 0.5546
vn -0.4712 -0.7392 -0.4812
vn 0.2598 -0.9629 0.0734
vn -0.6658 -0.6954 0.2703
vn 0.2304 -0.7635 -0.6032
vn 0.0995 -0.9110 -0.4002
vn -0.4788 -0.8525 0.2098
vn 0.1320 -0.9893 0.0628
vn -0.3218 -0.8684 -0.3773
vn -0.1267 -0.8881 0.4418
vn 0.1077 -0.9378 -0.3302
vn -0.3775 -0.9098 0.1722
vn 0.1707 -0.9823 0.0767
vn -0.2471 -0.9173 -0.3121
vn -0.0608 -0.9058 0.4193
vn 0.2334 -0.8960 -0.3778
vn -0.2792 -0.9496 0.1427
vn 0.2934 -0.9550 0.0438
vn -0.1777 -0.9450 -0.2745
vn -0.0294 -0.9517 0.3056
vn 0.2312 0.9729 0.0000
vn 0.6033 -0.1766 0.7777
vn 0.0113 0.2600 -0.9656
vn -0.4628 0.3490 0.8148
vn 0.9048 -0.2322 -0.3569
vn -0.4441 0.3907 0.8063
vn 0.8643 0.3548 -0.3565
vn -0.8720 0.4224 -0.2472
vn 0.5838 0.3620 0.7267
vn 0.0340 0.3759 -0.9260
vn 0.0104 0.2814 -0.9595
vn 0.5964 0.2694 0.7562
vn -0.9149 0.3135 -0.2541
vn 0.8914 0.2636 -0.3687
vn -0.4802 0.2931 0.8267
vn -0.2145 -0.9523 -0.2170
vn 0.1167 -0.9872 0.1085
vn -0.3817 -0.9211 -0.0764
vn 0.1392 -0.9901 0.0173
vn -0.3090 -0.9418 0.1327
vn 0.0638 0.2825 -0.9572
vn 0.6140 0.1846 0.7674
vn -0.7883 0.5637 -0.2468
vn 0.9215 0.0632 -0.3831
vn -0.4482 0.4482 0.7734
vn -0.3736 -0.8721 -0.3161
vn 0.0888 -0.9837 0.1564
vn -0.4840 -0.8463 -0.2225
vn 0.1260 -0.9918 0.0217
vn -0.3873 -0.9028 0.1872
vn -0.4444 0.4373 0.7818
vn 0.8594 0.3665 -0.3565
vn -0.8459 0.4729 -0.2466
vn 0.5675 0.3825 0.7291
vn -0.0000 0.4072 -0.9133
vn -0.1827 -0.9822 0.0434
vn 0.0665 -0.9970 0.0397
vn -0.2028 -0.9791 -0.0124
vn 0.0699 -0.9971 0.0286
vn -0.1175 -0.9896 -0.0831
vn -0.4849 0.4385 0.7567
vn 0.8042 0.4875 -0.3399
vn -0.8683 0.4513 -0.2057
vn 0.5266 0.4787 0.7025
vn -0.0101 0.4683 -0.8835
vn -0.2218 -0.9235 0.3128
vn 0.3902 -0.9163 -0.0901
vn -0.3918 -0.9055 -0.1628
vn 0.2946 -0.9159 0.2727
vn -0.0880 -0.9103 -0.4045
vn -0.4503 0.4959 0.7425
vn 0.8242 0.4512 -0.3422
vn -0.8185 0.5304 -0.2207
vn 0.5367 0.4615 0.7064
vn -0.0173 0.4809 -0.8766
vn -0.1419 -0.9829 0.1170
vn 0.1808 -0.9835 -0.0104
vn -0.2045 -0.9773 -0.0551
vn 0.1512 -0.9834 0.1003
vn -0.0638 -0.9831 -0.1717
vn 0.8994 -0.2527 -0.3567
vn 0.5506 -0.3418 0.7615
vn -0.4764 0.3121 0.8220
vn 0.0546 0.4282 -0.9020
vn -0.6763 0.7026 -0.2212
usemtl Material.153
s off
f 1/1/1 2/2/1 3/3/1 4/4/1
f 4/4/2 3/3/2 5/5/2 6/6/2
f 6/6/3 5/5/3 7/7/3 8/8/3
f 8/8/4 7/7/4 9/9/4 10/10/4
f 10/10/5 9/9/5 2/2/5 1/1/5
f 11/11/6 12/12/6 13/13/6 14/14/6 15/15/6
f 15/15/7 10/10/7 1/1/7 11/11/7
f 14/14/8 8/8/8 10/10/8 15/15/8
f 13/13/9 6/6/9 8/8/9 14/14/9
f 12/12/10 4/4/10 6/6/10 13/13/10
f 11/11/11 1/1/11 4/4/11 12/12/11
usemtl Material.154
f 5/5/12 3/3/12 16/16/12 17/17/12
f 18/18/13 19/19/13 20/20/13 21/21/13
f 2/2/14 9/9/14 22/22/14 23/23/14
f 3/3/15 2/2/15 23/23/15 16/16/15
f 7/7/16 5/5/16 17/17/16 24/24/16
f 9/9/17 7/7/17 24/24/17 22/22/17
f 25/25/18 21/21/18 26/26/18 27/27/18
f 28/28/19 29/29/19 30/30/19 31/31/19
f 32/32/20 18/18/20 21/21/20 25/25/20
f 19/19/21 28/28/21 31/31/21 20/20/21
f 29/29/22 32/32/22 25/25/22 30/30/22
f 33/33/23 34/34/23 35/35/23 36/36/23
f 37/37/24 38/38/24 39/39/24 40/40/24
f 41/41/25 42/42/25 43/43/25 44/44/25
f 45/45/26 46/46/26 47/47/26 48/48/26
f 49/49/27 50/50/27 51/51/27 52/52/27
f 53/53/28 54/54/28 55/55/28 56/56/28
f 57/57/29 58/58/29 59/59/29 60/60/29
f 61/61/30 62/62/30 63/63/30 64/64/30
f 34/34/31 65/65/31 66/66/31 35/35/31
f 38/38/32 67/67/32 68/68/32 39/39/32
f 42/42/33 69/69/33 70/70/33 43/43/33
f 46/46/34 71/71/34 72/72/34 47/47/34
f 50/50/35 33/33/35 36/36/35 51/51/35
f 54/54/36 37/37/36 40/40/36 55/55/36
f 58/58/37 41/41/37 44/44/37 59/59/37
f 62/62/38 45/45/38 48/48/38 63/63/38
f 65/65/39 49/49/39 52/52/39 66/66/39
f 67/67/40 53/53/40 56/56/40 68/68/40
f 69/69/41 57/57/41 60/60/41 70/70/41
f 71/71/42 61/61/42 64/64/42 72/72/42
f 48/48/43 47/47/43 73/73/43 74/74/43
f 64/64/44 63/63/44 75/75/44 76/76/44
f 47/47/45 72/72/45 77/77/45 73/73/45
f 63/63/46 48/48/46 74/74/46 75/75/46
f 72/72/47 64/64/47 76/76/47 77/77/47
f 70/70/48 60/60/48 78/78/48 79/79/48
f 59/59/49 44/44/49 80/80/49 81/81/49
f 43/43/50 70/70/50 79/79/50 82/82/50
f 60/60/51 59/59/51 81/81/51 78/78/51
f 44/44/52 43/43/52 82/82/52 80/80/52
f 68/68/53 56/56/53 83/83/53 84/84/53
f 55/55/54 40/40/54 85/85/54 86/86/54
f 39/39/55 68/68/55 84/84/55 87/87/55
f 56/56/56 55/55/56 86/86/56 83/83/56
f 40/40/57 39/39/57 87/87/57 85/85/57
f 66/66/58 52/52/58 88/88/58 89/89/58
f 51/51/59 36/36/59 90/90/59 91/91/59
f 35/35/60 66/66/60 89/89/60 92/92/60
f 52/52/61 51/51/61 91/91/61 88/88/61
f 36/36/62 35/35/62 92/92/62 90/90/62
f 93/93/63 94/94/63 95/95/63 27/27/63 26/26/63
f 20/20/64 31/31/64 94/94/64 93/93/64
f 30/30/65 25/25/65 27/27/65 95/95/65
f 21/21/66 20/20/66 93/93/66 26/26/66
f 31/31/67 30/30/67 95/95/67 94/94/67
f 96/96/68 97/97/68 61/61/68 71/71/68
f 98/98/69 99/99/69 45/45/69 62/62/69
f 100/100/70 96/96/70 71/71/70 46/46/70
f 97/97/71 98/98/71 62/62/71 61/61/71
f 99/99/72 100/100/72 46/46/72 45/45/72
f 80/80/73 82/82/73 101/101/73 102/102/73
f 78/78/74 81/81/74 103/103/74 104/104/74
f 82/82/75 79/79/75 105/105/75 101/101/75
f 81/81/76 80/80/76 102/102/76 103/103/76
f 79/79/77 78/78/77 104/104/77 105/105/77
f 102/102/78 101/101/78 100/100/78 99/99/78
f 104/104/79 103/103/79 98/98/79 97/97/79
f 101/101/80 105/105/80 96/96/80 100/100/80
f 103/103/81 102/102/81 99/99/81 98/98/81
f 105/105/82 104/104/82 97/97/82 96/96/82
f 74/74/83 73/73/83 106/106/83 107/107/83
f 76/76/84 75/75/84 108/108/84 109/109/84
f 73/73/85 77/77/85 110/110/85 106/106/85
f 75/75/86 74/74/86 107/107/86 108/108/86
f 77/77/87 76/76/87 109/109/87 110/110/87
f 107/107/88 106/106/88 32/32/88 29/29/88
f 109/109/89 108/108/89 28/28/89 19/19/89
f 106/106/90 110/110/90 18/18/90 32/32/90
f 108/108/91 107/107/91 29/29/91 28/28/91
f 110/110/92 109/109/92 19/19/92 18/18/92
f 84/84/93 83/83/93 111/111/93 112/112/93
f 86/86/94 85/85/94 113/113/94 114/114/94
f 87/87/95 84/84/95 112/112/95 115/115/95
f 83/83/96 86/86/96 114/114/96 111/111/96
f 85/85/97 87/87/97 115/115/97 113/113/97
f 112/112/98 111/111/98 57/57/98 69/69/98
f 114/114/99 113/113/99 41/41/99 58/58/99
f 115/115/100 112/112/100 69/69/100 42/42/100
f 111/111/101 114/114/101 58/58/101 57/57/101
f 113/113/102 115/115/102 42/42/102 41/41/102
f 89/89/103 88/88/103 116/116/103 117/117/103
f 91/91/104 90/90/104 118/118/104 119/119/104
f 92/92/105 89/89/105 117/117/105 120/120/105
f 88/88/106 91/91/106 119/119/106 116/116/106
f 90/90/107 92/92/107 120/120/107 118/118/107
f 117/117/108 116/116/108 53/53/108 67/67/108
f 119/119/109 118/118/109 37/37/109 54/54/109
f 120/120/110 117/117/110 67/67/110 38/38/110
f 116/116/111 119/119/111 54/54/111 53/53/111
f 118/118/112 120/120/112 38/38/112 37/37/112
f 17/17/113 16/16/113 121/121/113 122/122/113
f 23/23/114 22/22/114 123/123/114 124/124/114
f 24/24/115 17/17/115 122/122/115 125/125/115
f 16/16/116 23/23/116 124/124/116 121/121/116
f 22/22/117 24/24/117 125/125/117 123/123/117
f 122/122/118 121/121/118 49/49/118 65/65/118
f 124/124/119 123/123/119 33/33/119 50/50/119
f 125/125/120 122/122/120 65/65/120 34/34/120
f 121/121/121 124/124/121 50/50/121 49/49/121
f 123/123/122 125/125/122 34/34/122 33/33/122
f 94/94/123 95/95/123 126/126/123
f 93/93/124 94/94/124 126/126/124
f 26/26/125 93/93/125 126/126/125
f 95/95/126 27/27/126 126/126/126
f 126/126/127 27/27/127 26/26/127
